<svg width="56" height="56" viewBox="0 0 56 56" fill="none" xmlns="http://www.w3.org/2000/svg">
<circle cx="27.6708" cy="27.6708" r="27.1708" fill="#8D54EC" stroke="#EDEDED"/>
<path d="M8 16C8 13.2386 10.2386 11 13 11H42C44.7614 11 47 13.2386 47 16V40C47 42.7614 44.7614 45 42 45H13C10.2386 45 8 42.7614 8 40V16Z" fill="#D9D9D9"/>
<rect x="29" y="13" width="15" height="8" rx="2" fill="#EF5353"/>
<rect x="11" y="24" width="15" height="8" rx="2" fill="#EF5353"/>
<rect x="29" y="35" width="15" height="8" rx="2" fill="#EF5353"/>
<rect width="15" height="8" rx="2" transform="matrix(-1 0 0 1 26 13)" fill="#4378FF"/>
<rect width="15" height="8" rx="2" transform="matrix(-1 0 0 1 44 24)" fill="#4378FF"/>
<rect width="15" height="8" rx="2" transform="matrix(-1 0 0 1 26 35)" fill="#4378FF"/>
</svg>
